<?xml version="1.0" encoding="utf-8"?>
<!-- Generator: Adobe Illustrator 18.0.0, SVG Export Plug-In . SVG Version: 6.00 Build 0)  -->
<!DOCTYPE svg PUBLIC "-//W3C//DTD SVG 1.1//EN" "http://www.w3.org/Graphics/SVG/1.1/DTD/svg11.dtd">
<svg version="1.1" id="Layer_1" xmlns="http://www.w3.org/2000/svg" xmlns:xlink="http://www.w3.org/1999/xlink" x="0px" y="0px"
	 viewBox="0 673.1 1000 326.9" enable-background="new 0 673.1 1000 326.9" xml:space="preserve">
<g>
	<path fill="#2D2A4A" d="M135.1,864.9l-0.5-0.2c-6.4,14.2-19.9,22.7-38,22.7l0,0c-3.3,0-6.4-0.3-9.3-0.8c-0.8-0.2-1.6-0.3-2.6-0.5
		c-1.8-0.3-3.4-0.8-4.9-1.3c-1.8-0.7-3.4-1.3-5.1-2.1c-0.7-0.3-1.1-0.7-1.8-1c-2.1-1.1-4.1-2.6-5.9-4.1c-0.2-0.2-0.3-0.3-0.5-0.3
		c-2-1.6-3.6-3.4-5.1-5.5c-0.2-0.2-0.3-0.5-0.5-0.7c-1.3-1.8-2.4-3.6-3.4-5.5c-0.5-0.8-0.8-1.8-1.1-2.6c-0.5-1.3-1-2.6-1.5-4.1
		c-0.5-2-1.1-3.9-1.5-5.9c-0.2-0.5-0.2-1-0.3-1.5c-0.3-2.8-0.7-5.7-0.7-8.8c0-3.1,0.3-6,0.7-8.8c0-0.5,0.2-1,0.3-1.5
		c0.3-2.1,0.8-4.1,1.5-5.9c0.5-1.5,1-2.8,1.5-4.1c0.3-1,0.8-1.8,1.1-2.6c1-2,2.1-3.9,3.4-5.5c0.2-0.2,0.3-0.5,0.5-0.7
		c1.5-2,3.3-3.9,5.1-5.5c0.2-0.2,0.3-0.3,0.5-0.3c1.8-1.5,3.7-2.9,5.9-4.1c0.7-0.3,1.1-0.7,1.8-1c1.6-0.8,3.3-1.5,5.1-2.1
		c1.6-0.5,3.3-1,4.9-1.5c0.8-0.2,1.6-0.3,2.6-0.5c2.9-0.5,6-0.8,9.3-0.8l0,0c18.1,0,31.5,8.5,38,22.7l0.5-0.2
		c0.2,0.2,0.2,0.3,0.3,0.5l41.7-22.3c-12.7-29-42.5-47.1-80.3-47.1c-0.3,0-0.5,0-0.8,0c-0.2,0-0.3,0-0.7,0
		C34.7,751.5,0,792.5,0,842.9s34.7,91.4,95.3,91.4c0.2,0,0.3,0,0.7,0s0.5,0,0.8,0c38,0,67.6-18.1,80.3-47.1l-41.7-22.3
		C135.3,864.6,135.3,864.7,135.1,864.9z"/>
	<path fill="#2D2A4A" d="M384,755.5v173.6h-52.2v-21.7c-13,16-32.3,26.2-57,26.2c-48.2,0-83-38-83-91.4c0-53.8,34.7-91.4,83-91.4
		c24.8,0,44,9.9,57,26.2v-21.7H384V755.5z M332,818.6c-10.6-15.6-24.8-22.3-41.4-22.3c-28,0-45,18.4-45,46.1
		c0,27.2,16.9,46.1,45,46.1c16.6,0,30.8-7,41.4-22.3V818.6z"/>
	<path fill="#2D2A4A" d="M526.4,751.3v53.8c-27.7-2.1-54.3,11.7-64.5,32.6v91.4h-52.2V755.5h52.2v31.1
		C476.4,761.9,499,751,526.4,751.3z"/>
	<path fill="#00C152" d="M634.5,743.8v11.7h54.9v45.6h-54.9v127.9h-52.2V801.2h-30.1v-45.6h30.1v-18.7c0-41.4,27.7-63.7,65.8-63.7
		c16,0,28.4,2.8,41.1,8.5v45c-10.3-4.9-19.6-7.5-29.8-7.5C644.4,719,634.5,726.9,634.5,743.8z"/>
	<path fill="#00C152" d="M715.8,673.1h52.2v256h-52.2V673.1z"/>
	<polygon fill="#00C152" points="852,755.5 794,755.5 875.7,924.1 840.6,997.9 840.6,1000 897,1000 930.9,918.8 	"/>
	<polygon fill="#2D2A4A" points="942.1,755.5 920,814 949.3,874.8 999.3,755.5 	"/>
</g>
</svg>
