<?xml version="1.0" encoding="utf-8"?>
<!-- Generator: Adobe Illustrator 18.0.0, SVG Export Plug-In . SVG Version: 6.00 Build 0)  -->
<!DOCTYPE svg PUBLIC "-//W3C//DTD SVG 1.1//EN" "http://www.w3.org/Graphics/SVG/1.1/DTD/svg11.dtd">
<svg version="1.1" id="Layer_1" xmlns="http://www.w3.org/2000/svg" xmlns:xlink="http://www.w3.org/1999/xlink" x="0px" y="0px"
	 viewBox="0 0 1000 1000" enable-background="new 0 0 1000 1000" xml:space="preserve">
<g>
	<g>
		<path fill="#2D2A4A" d="M275.5,515.8l-0.3-0.1c-3.9,8.7-12.1,13.9-23.2,13.9l0,0c-2,0-3.9-0.2-5.7-0.5c-0.5-0.1-1-0.2-1.6-0.3
			c-1.1-0.2-2.1-0.5-3-0.8c-1.1-0.4-2.1-0.8-3.1-1.3c-0.4-0.2-0.7-0.4-1.1-0.6c-1.3-0.7-2.5-1.5-3.6-2.5c-0.1-0.1-0.2-0.2-0.3-0.2
			c-1.2-1-2.2-2.1-3.1-3.4c-0.1-0.1-0.2-0.3-0.3-0.4c-0.8-1.1-1.5-2.2-2.1-3.4c-0.3-0.5-0.5-1.1-0.7-1.6c-0.3-0.8-0.6-1.6-0.9-2.5
			c-0.3-1.2-0.7-2.4-0.9-3.6c-0.1-0.3-0.1-0.6-0.2-0.9c-0.2-1.7-0.4-3.5-0.4-5.4c0-1.9,0.1-3.7,0.4-5.4c0-0.3,0.1-0.6,0.2-0.9
			c0.2-1.3,0.5-2.4,0.9-3.6c0.3-0.9,0.6-1.7,0.9-2.5c0.2-0.6,0.5-1.1,0.7-1.6c0.6-1.2,1.3-2.4,2.1-3.4c0.1-0.1,0.2-0.3,0.3-0.4
			c0.9-1.2,2-2.3,3.1-3.4c0.1-0.1,0.2-0.2,0.3-0.2c1.1-0.9,2.3-1.7,3.6-2.5c0.4-0.2,0.7-0.4,1.1-0.6c1-0.5,2-0.9,3.1-1.3
			c1-0.3,2-0.6,3-0.8c0.5-0.1,1-0.2,1.6-0.3c1.8-0.3,3.7-0.5,5.7-0.5l0,0c11.1,0,19.3,5.2,23.2,13.9l0.3-0.1
			c0.1,0.1,0.1,0.2,0.2,0.3l25.6-13.7c-7.8-17.8-26-28.8-49.2-28.8c-0.2,0-0.3,0-0.5,0c-0.1,0-0.2,0-0.4,0
			c-37.1,0-58.3,25.2-58.3,56c0,30.8,21.3,56,58.3,56c0.1,0,0.2,0,0.4,0c0.2,0,0.3,0,0.5,0c23.2,0,41.4-11.1,49.2-28.8l-25.6-13.7
			C275.6,515.6,275.5,515.7,275.5,515.8z"/>
		<path fill="#2D2A4A" d="M427.9,448.9v106.3H396v-13.2c-8,9.8-19.7,16.1-34.9,16.1c-29.5,0-50.7-23.2-50.7-56c0-33,21.2-56,50.7-56
			c15.2,0,26.9,6.1,34.9,16.1v-13.2H427.9z M396,487.5c-6.5-9.5-15.2-13.7-25.4-13.7c-17.1,0-27.5,11.3-27.5,28.2
			c0,16.7,10.4,28.2,27.5,28.2c10.2,0,18.9-4.3,25.4-13.7V487.5z"/>
		<path fill="#2D2A4A" d="M515,446.3v33c-16.9-1.3-33.2,7.2-39.5,20v56h-31.9V448.9h31.9V468C484.4,452.8,498.3,446.1,515,446.3z"/>
		<path fill="#00C152" d="M581.2,441.7v7.2h33.6v28h-33.6v78.3h-31.9v-78.3h-18.4v-28h18.4v-11.5c0-25.4,16.9-39,40.3-39
			c9.8,0,17.3,1.7,25.2,5.2v27.5c-6.3-3-11.9-4.6-18.2-4.6C587.3,426.6,581.2,431.3,581.2,441.7z"/>
		<path fill="#00C152" d="M631,398.4h31.9v156.8H631V398.4z"/>
		<polygon fill="#00C152" points="714.4,448.9 678.9,448.9 728.8,552 707.5,597.3 707.5,598.6 741.9,598.6 762.7,548.9 		"/>
		<polygon fill="#2D2A4A" points="769.6,448.9 756,484.7 774,521.9 804.6,448.9 		"/>
	</g>
	<g>
		<path fill="#2D2A4A" d="M218.3,579.1c-0.5-0.6-1.1-1.1-1.8-1.4c-0.7-0.3-1.6-0.5-2.5-0.5c-0.9,0-1.8,0.2-2.6,0.5
			c-0.8,0.4-1.5,0.9-2.1,1.5c-0.6,0.7-1.1,1.4-1.4,2.3c-0.3,0.9-0.5,1.9-0.5,2.9c0,1.1,0.2,2.1,0.5,3s0.8,1.7,1.4,2.3
			c0.6,0.7,1.3,1.2,2.1,1.5c0.8,0.4,1.6,0.6,2.5,0.6c1,0,2-0.2,2.7-0.6c0.8-0.4,1.5-1,2-1.8l4.2,3.1c-1,1.4-2.2,2.4-3.7,3
			c-1.5,0.6-3,1-4.6,1c-1.8,0-3.4-0.3-4.9-0.8c-1.5-0.6-2.8-1.4-3.9-2.4c-1.1-1-2-2.3-2.6-3.8c-0.6-1.5-0.9-3.1-0.9-5
			c0-1.8,0.3-3.5,0.9-5s1.5-2.8,2.6-3.8c1.1-1,2.4-1.8,3.9-2.4c1.5-0.6,3.2-0.8,4.9-0.8c0.6,0,1.3,0.1,2,0.2s1.4,0.3,2.1,0.6
			c0.7,0.3,1.3,0.6,2,1c0.6,0.4,1.2,1,1.7,1.6L218.3,579.1z"/>
		<path fill="#2D2A4A" d="M238.5,573.2h4.2l10,22.9H247l-2-4.8h-8.9l-1.9,4.8h-5.6L238.5,573.2z M240.5,579.8l-2.8,7.1h5.6
			L240.5,579.8z"/>
		<path fill="#2D2A4A" d="M260.4,573.2h8.9c1.2,0,2.3,0.1,3.3,0.3c1,0.2,2,0.6,2.7,1.1c0.8,0.5,1.4,1.2,1.9,2.1
			c0.5,0.9,0.7,2,0.7,3.3c0,1.6-0.4,3-1.3,4.1s-2.1,1.8-3.7,2.1l5.8,9.7h-6l-4.8-9.1h-2.5v9.1h-5V573.2z M265.5,582.7h3
			c0.5,0,0.9,0,1.4,0c0.5,0,1-0.1,1.4-0.3c0.4-0.2,0.8-0.4,1-0.8c0.3-0.3,0.4-0.8,0.4-1.5c0-0.6-0.1-1-0.4-1.4
			c-0.2-0.3-0.5-0.6-0.9-0.8c-0.4-0.2-0.8-0.3-1.3-0.4c-0.5-0.1-0.9-0.1-1.4-0.1h-3.3V582.7z"/>
		<path fill="#2D2A4A" d="M301.9,573.2h8.9c1.2,0,2.3,0.1,3.3,0.3c1,0.2,2,0.6,2.7,1.1c0.8,0.5,1.4,1.2,1.9,2.1
			c0.5,0.9,0.7,2,0.7,3.3c0,1.6-0.4,3-1.3,4.1s-2.1,1.8-3.7,2.1l5.8,9.7h-6l-4.8-9.1H307v9.1h-5V573.2z M307,582.7h3
			c0.5,0,0.9,0,1.4,0c0.5,0,1-0.1,1.4-0.3c0.4-0.2,0.8-0.4,1-0.8c0.3-0.3,0.4-0.8,0.4-1.5c0-0.6-0.1-1-0.4-1.4
			c-0.2-0.3-0.5-0.6-0.9-0.8c-0.4-0.2-0.8-0.3-1.3-0.4c-0.5-0.1-0.9-0.1-1.4-0.1H307V582.7z"/>
		<path fill="#2D2A4A" d="M328.6,573.2h15.5v4.7h-10.5v4.3h9.9v4.7h-9.9v4.7h11.1v4.7h-16.1V573.2z"/>
		<path fill="#2D2A4A" d="M354.3,573.2h6.9l9.7,15.9h0.1v-15.9h5v22.9h-6.6l-10-16.3h-0.1v16.3h-5V573.2z"/>
		<path fill="#2D2A4A" d="M390.5,577.6H384v-4.5h18.1v4.5h-6.5v18.4h-5V577.6z"/>
		<path fill="#2D2A4A" d="M414.7,573.2h4.2l10,22.9h-5.7l-2-4.8h-8.9l-1.9,4.8h-5.6L414.7,573.2z M416.6,579.8l-2.8,7.1h5.6
			L416.6,579.8z"/>
		<path fill="#2D2A4A" d="M436.8,573.2h5v18.2h9.3v4.7h-14.4V573.2z"/>
	</g>
</g>
</svg>
