<?xml version="1.0" encoding="utf-8"?>
<!-- Generator: Adobe Illustrator 18.0.0, SVG Export Plug-In . SVG Version: 6.00 Build 0)  -->
<!DOCTYPE svg PUBLIC "-//W3C//DTD SVG 1.1//EN" "http://www.w3.org/Graphics/SVG/1.1/DTD/svg11.dtd">
<svg version="1.1" id="Layer_1" xmlns="http://www.w3.org/2000/svg" xmlns:xlink="http://www.w3.org/1999/xlink" x="0px" y="0px"
	 viewBox="192 397.7 613.6 201" enable-background="new 192 397.7 613.6 201" xml:space="preserve">
<g>
	<g>
		<path fill="#2D2A4A" d="M275,515.7l-0.3-0.1c-3.9,8.7-12.1,13.9-23.3,13.9l0,0c-2,0-3.9-0.2-5.7-0.5c-0.5-0.1-1-0.2-1.6-0.3
			c-1.1-0.2-2.1-0.5-3-0.8c-1.1-0.4-2.1-0.8-3.1-1.3c-0.4-0.2-0.7-0.4-1.1-0.6c-1.3-0.7-2.5-1.5-3.6-2.5c-0.1-0.1-0.2-0.2-0.3-0.2
			c-1.2-1-2.2-2.1-3.1-3.4c-0.1-0.1-0.2-0.3-0.3-0.4c-0.8-1.1-1.5-2.2-2.1-3.4c-0.3-0.5-0.5-1.1-0.7-1.6c-0.3-0.8-0.6-1.6-0.9-2.5
			c-0.3-1.2-0.7-2.4-0.9-3.6c-0.1-0.3-0.1-0.6-0.2-0.9c-0.2-1.7-0.4-3.5-0.4-5.4s0.1-3.7,0.4-5.4c0-0.3,0.1-0.6,0.2-0.9
			c0.2-1.3,0.5-2.4,0.9-3.6c0.3-0.9,0.6-1.7,0.9-2.5c0.2-0.6,0.5-1.1,0.7-1.6c0.6-1.2,1.3-2.4,2.1-3.4c0.1-0.1,0.2-0.3,0.3-0.4
			c0.9-1.2,2-2.3,3.1-3.4c0.1-0.1,0.2-0.2,0.3-0.2c1.1-0.9,2.3-1.7,3.6-2.5c0.4-0.2,0.7-0.4,1.1-0.6c1-0.5,2-0.9,3.1-1.3
			c1-0.3,2-0.6,3-0.8c0.5-0.1,1-0.2,1.6-0.3c1.8-0.3,3.7-0.5,5.7-0.5l0,0c11.1,0,19.4,5.2,23.3,13.9l0.3-0.1
			c0.1,0.1,0.1,0.2,0.2,0.3l25.7-13.7c-7.8-17.8-26.1-28.9-49.3-28.9c-0.2,0-0.3,0-0.5,0c-0.1,0-0.2,0-0.4,0
			c-37.2,0-58.5,25.3-58.5,56.2c0,30.9,21.4,56.2,58.5,56.2c0.1,0,0.2,0,0.4,0c0.2,0,0.3,0,0.5,0c23.3,0,41.5-11.1,49.3-28.9
			l-25.7-13.7C275.1,515.5,275,515.6,275,515.7z"/>
		<path fill="#2D2A4A" d="M427.8,448.6v106.6h-32v-13.2c-8,9.8-19.8,16.1-35,16.1c-29.6,0-50.8-23.3-50.8-56.2
			c0-33.1,21.3-56.2,50.8-56.2c15.2,0,27,6.1,35,16.1v-13.2h32V448.6z M395.8,487.3c-6.5-9.5-15.2-13.7-25.5-13.7
			c-17.1,0-27.6,11.3-27.6,28.3c0,16.7,10.4,28.3,27.6,28.3c10.2,0,19-4.3,25.5-13.7V487.3z"/>
		<path fill="#2D2A4A" d="M515.2,446v33.1c-16.9-1.3-33.3,7.2-39.6,20.1v56.2h-32V448.6h32v19.2C484.5,452.5,498.4,445.8,515.2,446z
			"/>
		<path fill="#00C152" d="M581.6,441.4v7.2h33.7v28.1h-33.7v78.5h-32v-78.5h-18.5v-28.1h18.5v-11.5c0-25.5,16.9-39.1,40.4-39.1
			c9.8,0,17.3,1.7,25.3,5.2v27.6c-6.3-3-11.9-4.6-18.3-4.6C587.7,426.2,581.6,430.9,581.6,441.4z"/>
		<path fill="#00C152" d="M631.5,397.9h32v157.2h-32V397.9z"/>
		<polygon fill="#00C152" points="715.1,448.6 679.5,448.6 729.6,552 708.2,597.4 708.2,598.7 742.7,598.7 763.6,548.9 		"/>
		<polygon fill="#2D2A4A" points="770.5,448.6 756.8,484.5 774.9,521.8 805.6,448.6 		"/>
	</g>
	<g>
		<path fill="#2D2A4A" d="M217.7,579.1c-0.5-0.6-1.1-1.1-1.8-1.4s-1.6-0.5-2.5-0.5c-0.9,0-1.8,0.2-2.6,0.5c-0.8,0.4-1.5,0.9-2.1,1.5
			c-0.6,0.7-1.1,1.4-1.4,2.3c-0.3,0.9-0.5,1.9-0.5,2.9c0,1.1,0.2,2.1,0.5,3c0.3,0.9,0.8,1.7,1.4,2.3c0.6,0.7,1.3,1.2,2.1,1.5
			c0.8,0.4,1.6,0.6,2.5,0.6c1,0,2-0.2,2.7-0.6c0.8-0.4,1.5-1,2-1.8l4.2,3.1c-1,1.4-2.2,2.4-3.7,3c-1.5,0.6-3,1-4.6,1
			c-1.8,0-3.4-0.3-4.9-0.8c-1.5-0.6-2.8-1.4-3.9-2.4c-1.1-1-2-2.3-2.6-3.8c-0.6-1.5-0.9-3.1-0.9-5c0-1.8,0.3-3.5,0.9-5
			c0.6-1.5,1.5-2.8,2.6-3.8c1.1-1,2.4-1.8,3.9-2.4c1.5-0.6,3.2-0.8,4.9-0.8c0.6,0,1.3,0.1,2,0.2c0.7,0.1,1.4,0.3,2.1,0.6
			c0.7,0.3,1.3,0.6,2,1c0.6,0.4,1.2,1,1.7,1.6L217.7,579.1z"/>
		<path fill="#2D2A4A" d="M237.9,573.2h4.2l10,23h-5.7l-2-4.8h-8.9l-1.9,4.8H228L237.9,573.2z M239.9,579.8l-2.8,7.1h5.6
			L239.9,579.8z"/>
		<path fill="#2D2A4A" d="M259.9,573.2h8.9c1.2,0,2.3,0.1,3.3,0.3c1,0.2,2,0.6,2.7,1.1c0.8,0.5,1.4,1.2,1.9,2.1
			c0.5,0.9,0.7,2,0.7,3.3c0,1.6-0.4,3-1.3,4.1s-2.1,1.8-3.7,2.1l5.8,9.7h-6l-4.8-9.1h-2.5v9.1h-5V573.2z M265,582.8h3
			c0.5,0,0.9,0,1.4,0c0.5,0,1-0.1,1.4-0.3c0.4-0.2,0.8-0.4,1-0.8c0.3-0.3,0.4-0.8,0.4-1.5c0-0.6-0.1-1-0.4-1.4
			c-0.2-0.3-0.5-0.6-0.9-0.8c-0.4-0.2-0.8-0.3-1.3-0.4c-0.5-0.1-0.9-0.1-1.4-0.1h-3.3v5.3H265z"/>
		<path fill="#2D2A4A" d="M301.5,573.2h8.9c1.2,0,2.3,0.1,3.3,0.3c1,0.2,2,0.6,2.7,1.1c0.8,0.5,1.4,1.2,1.9,2.1
			c0.5,0.9,0.7,2,0.7,3.3c0,1.6-0.4,3-1.3,4.1c-0.9,1.1-2.1,1.8-3.7,2.1l5.8,9.7h-6l-4.8-9.1h-2.4v9.1h-5v-22.8H301.5z M306.6,582.8
			h3c0.5,0,0.9,0,1.4,0c0.5,0,1-0.1,1.4-0.3c0.4-0.2,0.8-0.4,1-0.8c0.3-0.3,0.4-0.8,0.4-1.5c0-0.6-0.1-1-0.4-1.4
			c-0.2-0.3-0.5-0.6-0.9-0.8c-0.4-0.2-0.8-0.3-1.3-0.4c-0.5-0.1-0.9-0.1-1.4-0.1h-3.2V582.8z"/>
		<path fill="#2D2A4A" d="M328.3,573.2h15.5v4.7h-10.5v4.3h9.9v4.7h-9.9v4.7h11.1v4.7h-16.1V573.2z"/>
		<path fill="#2D2A4A" d="M354,573.2h6.9l9.7,15.9h0.1v-15.9h5v23h-6.6l-10-16.3H359v16.3h-5V573.2z"/>
		<path fill="#2D2A4A" d="M390.3,577.6h-6.5v-4.5H402v4.5h-6.5v18.5h-5v-18.5H390.3z"/>
		<path fill="#2D2A4A" d="M414.6,573.2h4.2l10,23h-5.7l-2-4.8h-8.9l-1.9,4.8h-5.6L414.6,573.2z M416.5,579.8l-2.8,7.1h5.6
			L416.5,579.8z"/>
		<path fill="#2D2A4A" d="M436.8,573.2h5v18.3h9.3v4.7h-14.4v-23H436.8z"/>
	</g>
</g>
</svg>
